<svg width="48" height="48" viewBox="0 0 48 48" fill="none" xmlns="http://www.w3.org/2000/svg">
<rect width="48" height="48" rx="5" fill="black"/>
<path d="M28.6465 22.512C28.6385 21.0372 29.3055 19.924 30.6558 19.1042C29.9003 18.0232 28.759 17.4285 27.252 17.3119C25.8254 17.1994 24.2662 18.1438 23.6956 18.1438C23.0928 18.1438 21.7104 17.3521 20.6254 17.3521C18.383 17.3883 16 19.1404 16 22.7049C16 23.7578 16.1929 24.8455 16.5787 25.968C17.0931 27.4428 18.9496 31.0595 20.8866 30.9993C21.8993 30.9751 22.6146 30.2799 23.9327 30.2799C25.2106 30.2799 25.8737 30.9993 27.0029 30.9993C28.9559 30.9711 30.6357 27.6839 31.126 26.2051C28.5058 24.9714 28.6465 22.5884 28.6465 22.512ZM26.372 15.9135C27.4691 14.6115 27.3686 13.426 27.3364 13C26.368 13.0563 25.2468 13.659 24.6078 14.4025C23.9046 15.1982 23.4906 16.1827 23.5791 17.2919C24.6279 17.3722 25.5843 16.8337 26.372 15.9135Z" fill="white"/>
</svg>
