<svg width="824" height="188" viewBox="0 0 824 188" fill="none" xmlns="http://www.w3.org/2000/svg">
<path d="M57.5 170.5L81.5 140.5L807.5 152.5L817.5 110.5L807.5 7.5H49.5L10 15.5V110.5L57.5 170.5Z" fill="white" stroke="black"/>
<path d="M824 20.3341V137.898C824.016 149.128 814.928 158.249 803.697 158.265C803.688 158.265 803.672 158.265 803.664 158.265H67.4609V137.972H803.738V20.26H20.2622V111.805L67.4609 159.27V188L8.2812 128.489C2.97464 123.158 4.68582e-06 115.949 4.68582e-06 108.427V24.2642C-0.00823531 10.8674 10.8521 0.00823911 24.2503 0H24.2586H803.664C814.895 0 824 9.10422 824 20.3341Z" fill="#E9001A"/>
<path d="M398.684 45.9248H384.412V111.549H398.684V45.9248Z" fill="black"/>
<path d="M157.45 50.893C155.291 45.7023 149.342 43.2471 144.151 45.3975C141.662 46.4274 139.693 48.4047 138.654 50.893L113.572 111.038H129.03L135.021 96.653H161.084L167.074 111.038H182.532L157.45 50.893ZM139.676 85.4972L148.048 65.4103L156.42 85.4972H139.676Z" fill="black"/>
<path d="M530.31 50.893C528.151 45.7023 522.202 43.2471 517.011 45.3975C514.522 46.4274 512.553 48.4047 511.514 50.893L486.432 111.038H501.882L507.881 96.653H533.952L539.942 111.038H555.376L530.31 50.893ZM512.528 85.5137L520.9 65.4268L529.272 85.5137H512.528Z" fill="black"/>
<path d="M355.292 50.893C353.133 45.7023 347.184 43.2471 341.993 45.3975C339.504 46.4274 337.535 48.4047 336.497 50.893L311.414 111.038H326.873L332.896 96.6942H358.959L364.95 111.08H380.408L355.292 50.893ZM337.527 85.4972L345.89 65.4103L354.262 85.4972H337.527Z" fill="black"/>
<path d="M483.144 45.9248V103.154C483.144 112.126 471.608 115.751 466.458 108.386L440.09 70.4279V111.549H425.794V54.9137C425.794 45.7024 437.659 41.9865 442.925 49.5418L468.881 86.865V45.9248H483.144Z" fill="black"/>
<path d="M243.451 45.9248V103.154C243.451 112.126 231.915 115.751 226.765 108.386L200.397 70.4279V111.549H186.1V54.9137C186.1 45.7024 197.966 41.9865 203.231 49.5418L229.187 86.865V45.9248H243.451Z" fill="black"/>
<path d="M741.6 112.695C717.35 112.695 704.99 96.3317 704.99 79.219C704.99 59.2392 721.865 44.9773 741.13 44.9773C762.06 44.9773 777.675 57.336 777.675 79.7381C777.65 97.2956 763.93 112.695 741.6 112.695ZM762.118 79.2602C762.2 66.4402 753.96 57.7479 742.539 57.0146C731.465 56.3143 720.876 66.0117 720.852 78.9307C720.852 91.2893 729.916 101.011 741.452 101.069C753.334 101.127 762.002 91.9485 762.093 79.2602H762.118Z" fill="black"/>
<path d="M676.99 101.069C665.413 101.003 656.324 91.2729 656.39 78.9307C656.39 66.0117 666.995 56.3143 678.07 57.0146C684.299 57.27 690.059 60.4009 693.66 65.4844L702.534 53.7519C696.033 47.9846 686.977 44.9773 676.636 44.9773C657.379 44.9773 640.495 59.2392 640.495 79.219C640.495 96.3317 652.855 112.695 677.114 112.695C687.504 112.695 696.016 109.399 702.163 104.06L693.487 92.8053C689.704 98.136 683.524 101.234 676.99 101.069Z" fill="black"/>
<path d="M631.324 111.549H617.052V70.1066L602.492 91.7261C599.715 95.8456 594.137 96.9332 590.017 94.1648C589.053 93.5139 588.229 92.69 587.578 91.7261L573.018 70.1066V111.549H558.746V54.6995C558.746 44.0463 571.708 42.6374 577.303 50.9425L595.035 77.2582L612.768 50.9425C618.362 42.6374 631.324 44.0463 631.324 54.6995V111.549Z" fill="black"/>
<path d="M279.789 45.9248H262.131C259.016 45.933 256.486 48.4624 256.486 51.5768V105.897C256.486 109.012 259.016 111.541 262.131 111.549H281.693C302.614 111.549 314.026 95.3842 314.026 78.2633C314.026 59.2392 300.711 45.9248 279.789 45.9248ZM279.789 100.048H270.725V58.1022H279.789C290.254 58.1022 298.807 64.9489 298.807 79.219C298.807 91.5777 289.298 100.048 279.789 100.048Z" fill="black"/>
<path d="M108.62 62.0982C108.62 53.1093 100.256 45.9248 89.7913 45.9248H58.8254C55.7024 45.9248 53.1727 48.4542 53.1727 51.5768V105.897C53.1727 109.02 55.7024 111.549 58.8254 111.549H95.5016C106.354 111.549 112.344 102.89 112.344 94C112.344 83.973 105.134 79.664 98.0972 77.8514C106.106 74.4816 108.62 69.95 108.62 62.0982ZM85.4488 58.1104C91.052 58.1104 93.6888 60.8046 93.6888 65.089C93.6888 68.7719 91.4393 73.1056 85.4488 73.1056H67.4362V58.1022L85.4488 58.1104ZM97.1249 92.0061C97.1249 95.7961 94.8589 100.048 87.8879 100.048H67.4362V83.973H88.341C95.0154 83.973 97.1249 87.8372 97.1249 92.0061Z" fill="black"/>
</svg>
