<svg width="48" height="48" viewBox="0 0 48 48" fill="none" xmlns="http://www.w3.org/2000/svg">
<path d="M0 5C0 2.23858 2.23858 0 5 0H24V24H0V5Z" fill="#E74133"/>
<path d="M24 0H43C45.7614 0 48 2.23858 48 5V24H24V0Z" fill="#3E82F1"/>
<path d="M24 24H48V43C48 45.7614 45.7614 48 43 48H24V24Z" fill="#32A753"/>
<path d="M0 24H24V48H5C2.23858 48 0 45.7614 0 43V24Z" fill="#F9BB00"/>
<path d="M33 24.2105C33 29.3456 29.4258 33 24.1475 33C19.0869 33 15 28.979 15 24C15 19.021 19.0869 15 24.1475 15C26.6115 15 28.6844 15.8891 30.2816 17.3552L27.7918 19.7105C24.5348 16.6185 18.4783 18.9411 18.4783 24C18.4783 27.1391 21.027 29.6831 24.1475 29.6831C27.7697 29.6831 29.127 27.1282 29.341 25.8036H24.1475V22.7081H32.8561C32.941 23.169 33 23.6117 33 24.2105Z" fill="white"/>
</svg>
