<svg width="44" height="20" viewBox="0 0 44 20" fill="none" xmlns="http://www.w3.org/2000/svg">
<rect width="43.8113" height="20" rx="10" fill="#E9001A"/>
<path d="M16.0881 5.27273V14H14.2983L10.8253 8.96307H10.7699V14H8.66051V5.27273H10.4759L13.9105 10.3011H13.983V5.27273H16.0881ZM17.4144 14V5.27273H23.4996V6.9858H19.5238V8.77557H23.1886V10.4929H19.5238V12.2869H23.4996V14H17.4144ZM26.913 14L24.3732 5.27273H26.7042L28.021 10.9915H28.0934L29.5977 5.27273H31.4982L33.0025 11.0043H33.0749L34.396 5.27273H36.7227L34.1871 14H32.1545L30.582 8.70739H30.5138L28.9414 14H26.913Z" fill="white"/>
</svg>
